Patient4_TMGait_0pt3_01_left_27_EMG.mot
version=1
nRows=36
nColumns=33
inDegrees=no
endheader
time	1LAddLong	2LGlutMax	3LGlutMed	4LIliopsoas	5LSemiMemb	6LBicFemLong	7LRecFem	8LVastMed	9LVastLat	10LGasMed	11LTibAnt	12lTibPost	13LPeroneusLong	14LSol	15LExtDigLong	16LFlexDigLong	17RAddLong	18RGlutMax	19RGlutMed	20RIliopsoas	21RSemiMemb	22RBicFemLong	23RRecFem	24RVastMed	25RVastLat	26RGasMed	27RTibAnt	28RTibPost	29RPeroneusLong	30RSol	31RExtDigLong	32RFlexDigLong
51.5	0.016785	0.2533	-0.054474	0.011444	0.090637	-0.078735	-0.003815	0.002899	-0.32303	0.024414	0.06073	0.000763	0.032501	-0.009613	-0.063782	0.005035	0.010529	-0.03952	-0.15396	0.10407	0.032196	0.036774	0.014954	-0.017242	0.016632	-0.004883	0.012665	0.002441	-0.076752	0.50354	-0.00061	-0.012054
51.501	-0.031433	0.25314	-0.15839	0.014496	0.090332	-0.035553	0.058136	-0.005341	-0.23086	0.016479	-0.054321	0.001373	0.075684	-0.058441	-0.080566	-0.011139	0.013123	-0.00412	-0.087433	0.074005	0.045624	0.09079	0.049896	0.005341	0.021057	-0.003052	0.009155	0.039978	-0.009308	0.44052	-0.002441	-0.005798
51.502	-0.02121	0.10803	-0.32822	0.015411	0.10895	0.027161	0.098877	-0.002899	-0.15778	0.027161	-0.18829	0.005188	0.084381	-0.1062	0.10162	0.016785	0.00824	-0.004883	-0.26306	0.13916	0.010071	0.11124	0.027313	-0.010223	0.029144	0.003052	0.018616	0.007172	0.054474	0.066681	-0.00061	-0.011597
51.503	-0.022736	0.02182	-0.34714	0	0.02594	0.20477	0.11643	0.006409	-0.060577	0.12421	-0.13473	0.009613	0.032349	-0.08606	0.076904	0.007324	0.026855	-0.064545	-0.2095	0.085144	-0.001831	0.14145	0.067291	-0.049744	0.017242	0.005493	0.033569	0.002594	0.040283	-0.08255	0.000153	-0.019226
51.504	-0.027313	0.053864	-0.14648	0.011139	-0.03891	0.18707	0.042114	0.000305	0.070496	0.17258	-0.071106	0.006256	0.016327	-0.095825	-0.009003	0.009003	0.0177	-0.027313	-0.01297	-0.011292	0.03006	0.0914	0.06134	-0.03067	0.000305	0.000458	0.042114	-0.003204	0.002594	-0.061646	-0.004272	-0.00946
51.505	-0.015717	0.04425	0.028076	0.017395	-0.068817	0.14313	0.016785	-0.010376	0.12894	0.14725	-0.030518	0.003815	0.012817	-0.11368	-0.07843	-0.005798	0.009003	0.014496	-0.040588	-0.08194	0.036011	0.019684	0.04776	-0.03006	0.024719	0.002289	0.029602	-0.002136	-0.011292	-0.043182	-0.002441	-0.007477
51.506	-0.014191	0.02243	0.018463	0.020752	-0.067596	0.16083	0.016785	-0.007477	0.043488	-0.033722	0.00473	0.007477	0.033112	-0.071106	-0.14862	0.008698	0.019226	-0.009003	-0.017548	-0.16434	0.016327	0.013733	0.051422	-0.041199	0.011597	0.000458	0.018768	-0.004425	-0.031433	-0.076141	-0.002594	-0.009766
51.507	0.017395	0.006561	0.007324	0.007629	0.014496	0.19318	0.085907	-0.002136	0.011292	-0.15472	0.097504	0.00473	0.041656	-0.09903	-0.038605	-0.002899	0.002899	0.049133	-0.034332	-0.15274	-0.020142	0.000305	0.031281	-0.013885	0.019684	0.004272	0.003204	-0.007477	0.000916	-0.13443	-0.001068	-0.010071
51.508	0.012512	-0.001068	-0.005493	0.010223	0.083313	0.25665	0.068817	-0.009003	0.15045	-0.1181	0.10315	0.002289	0.045776	-0.032349	0.003204	-0.003662	-0.003357	0.034027	-0.13184	-0.056152	0.043945	-0.002136	-0.028076	-0.003204	0.010223	0.005188	0.005798	-0.00473	-0.019379	-0.12131	-0.000916	-0.002289
51.509	0.003204	0.057068	-0.018921	-0.010529	0.035706	0.20721	0.059509	-0.007935	0.28503	-0.099792	0.0737	0.014191	0.066376	0.041504	0.020752	-0.000305	0.00946	0.004883	-0.06073	0.052948	0.058594	0.018311	0.053864	-0.060272	0.011292	-0.000458	0.008087	-0.003662	-0.021667	-0.12131	0.00351	-0.003357
51.51	0.006409	0.064087	-0.041962	-0.003967	-0.020142	0.053711	-0.006104	-0.00412	0.37842	-0.028381	0.059052	-0.001373	0.037079	0.014343	-0.025177	0.00351	0.015869	-0.031128	0.038147	0.10086	-0.093231	0.05722	0.037842	-0.05249	0.018921	-0.001678	0.011749	-0.009155	-0.045166	-0.13306	0.000153	-0.006409
51.511	0.010223	0.03891	-0.059357	0.002136	-0.012817	-0.1413	-0.10529	-0.005341	0.42602	-0.018921	0.054016	0.004272	0.009918	-0.01297	-0.037384	-0.007782	0.003815	-0.006714	-0.23636	0.12161	-0.16876	0.032501	0.065308	-0.083771	0.026855	0.001984	0.00946	-0.00885	-0.026093	-0.12329	-0.001831	-0.007935
51.512	-0.001526	0.028076	-0.031128	0.020294	-0.068359	-0.12741	-0.14908	-0.013428	0.26032	-0.022888	-0.014496	0.010376	0.067596	-0.015106	-0.021057	-0.00412	-0.013885	-0.002747	-0.30792	0.036926	-0.064392	0.001831	0.058136	-0.043182	0.004425	0.001068	0.007782	-0.002747	-0.031586	-0.0914	-0.001221	-0.008545
51.513	-0.00824	0.033569	0.025024	0.035553	-0.088196	0.098724	0.066071	-0.024567	-0.159	-0.019531	-0.074005	0.014191	0.098419	0.006714	0.010071	-0.006866	-0.05661	0.025024	-0.22903	-0.015717	0.043945	-0.021057	0.009003	-0.00473	0.032501	-0.007172	-0.00412	-0.005188	-0.031586	-0.065613	-0.001831	-0.009155
51.514	-0.009003	0.023346	0.053101	0.013123	-0.032654	0.25482	0.1033	-0.019226	-0.31509	-0.003662	-0.011444	0.002136	0.053406	-0.01709	0.036316	0.005341	-0.046997	0.027618	-0.12283	0.00824	0.12726	-0.050507	0.031738	0.003815	0.029755	0.00351	-0.007019	-0.005798	-0.15793	-0.089417	0.000458	-0.006256
51.515	-0.018158	0.055542	-0.001678	0.004578	0.014954	0.22934	0.08667	-0.013123	-0.19653	0.043182	0.047913	0.005493	0.030518	-0.058289	0.06897	0.005798	-0.017395	-0.001526	0.005035	0.08667	0.033875	-0.085144	0.034027	-0.028534	0.021057	0.013428	0.001373	-0.005646	-0.38742	-0.08194	-0.000305	-0.012512
51.516	-0.032043	0.02533	-0.10605	0.013123	-0.071259	0.20248	0.050507	0.007324	-0.095215	0.044861	0.037689	0.003357	0.022278	-0.031281	0.052185	0.006256	-0.006256	0.023804	-0.027466	0.13138	-0.006714	-0.071869	0.030975	-0.028992	0.014801	0.002441	0.012512	-0.003052	-0.22064	-0.010376	0.003357	-0.00351
51.517	-0.03479	0.049133	-0.2095	0.027161	-0.062408	0.17319	0.034943	0.00412	-0.018616	0.019836	0.020599	0.001526	0.016632	-0.028687	0.014648	-0.005188	0.005493	0.016632	0.098572	0.040741	0.002594	-0.05722	0.050354	-0.038147	0.026245	-0.003967	0.001678	-0.002899	0.067749	0.006561	0.00061	-0.014496
51.518	-0.001984	0.094299	-0.094147	0.019531	-0.058136	0.15106	0.010223	0.003815	0.006866	0.010376	0.001678	-0.005798	0.029907	-0.035858	0.027313	-0.010681	0.012665	0.064392	0.14694	-0.015717	0.003815	-0.067596	0.031433	-0.050201	0.00885	-0.009003	0.000916	-0.002289	0.15778	-0.027466	0.001221	-0.013123
51.519	0.008087	0.082092	-0.000153	0.026093	0.046997	0.033875	0.012207	-0.006561	0.046539	0.006104	-0.021362	0.016327	0.053711	-0.040588	0.032501	0.003357	0.0177	0.066681	-0.059967	-0.048523	-0.012817	0.007935	-0.001373	-0.031586	0.007782	-0.005493	0.018921	-0.004425	0.14496	-0.085754	-0.000916	-0.015869
51.52	0.019531	0.088196	0.24338	0.030212	0.11292	-0.034027	0.026703	-0.005798	0.020447	0.032043	-0.039368	0.00473	0.25131	-0.020752	0.048065	-0.010223	0.015564	-0.015411	-0.28625	-0.12085	0.025177	0.016327	-0.001678	0.001068	0.036011	-0.003357	0.014954	-0.005646	0.14496	-0.1181	-0.001373	-0.01297
51.521	0.015869	0.000305	0.12451	0.01236	0.090485	-0.19134	0.04776	-0.00946	0.018005	0.046539	-0.052948	-0.004425	0.39414	0.008087	0.072327	0.01358	0.027771	-0.068054	-0.24735	-0.086517	0.052948	0.059814	0.003204	-0.046539	0.008545	0.000153	0.006104	0.000916	0.25436	-0.11246	-0.00061	-0.01709
51.522	0.028381	-0.031891	0.012054	-0.001526	0.005188	-0.31311	0.029755	-0.012665	0.027161	0.029144	-0.061493	0.007629	0.30197	0.043793	0.085297	0.007324	0.03006	-0.093079	-0.20691	-0.052948	0.041656	0.007172	0.017853	-0.035095	0.020905	-0.003967	0.005646	0.006561	0.24597	-0.00351	-0.003662	-0.011292
51.523	0.028534	-0.066681	0.036316	-0.008087	-0.002136	-0.36224	0.040588	-0.009003	0.024109	-0.090332	-0.060577	-0.000458	1.0866	0.15564	0.11169	-0.002594	0.033875	-0.084686	-0.15823	-0.056763	-0.009003	-0.001678	0.035706	-0.022736	0.028687	0.000153	0.025024	0.013275	-0.076599	-0.03891	-0.000916	-0.013885
51.524	0.012054	-0.060883	-0.019226	-0.000153	0.048218	-0.24231	0.030518	-0.00885	0.042114	-0.11429	-0.041199	0.014954	-0.60089	0.11688	0.075531	0.000458	0.056152	-0.13443	-0.037231	-0.007172	0.011444	0.045624	0.050354	-0.066681	0.014954	0.005798	0.018921	-0.00351	-0.32638	-0.097961	-0.003052	-0.00885
51.525	0.003357	-0.064392	-0.041656	-0.005341	0.06012	-0.055542	0.072632	-0.010223	0.047913	-0.026245	0.026398	0.005798	-0.42313	-0.012207	-0.039978	0.001831	0.061798	-0.12512	0.061951	-0.00946	0.08667	0.056305	0.04776	-0.032959	0.016785	0.007172	0.014954	-0.41214	-0.3949	-0.092773	-0.007172	-0.01297
51.526	-0.006561	-0.067139	-0.018311	0.005035	0.051727	0.086517	0.13565	-0.023499	0.034027	0.015869	0.011902	0.012817	-0.28275	-0.06485	-0.095825	-0.011139	0.049896	-0.086365	0.28488	-0.001984	0.007935	0.1001	0.008545	-0.014038	0.037079	0.016022	0.022125	0.085907	-0.54535	-0.014496	-0.001984	-0.006866
51.527	-0.0177	-0.12436	-0.082092	0.011902	0.006561	0.17273	0.11429	-0.008545	0.006561	0.088196	0.022278	0.015259	-0.096588	-0.11704	-0.12848	-0.011444	0.040131	-0.051727	0.2298	0.049744	-0.12192	0.081329	0.037384	-0.070801	0.019226	0.011597	0.023041	0.21149	-0.17471	0.12238	-0.001526	-0.001678
51.528	-0.001984	-0.1973	-0.052795	0.003204	-0.019836	0.14282	0.088196	-0.028534	0.003357	0.095215	0.003052	-0.011597	-0.068207	-0.13001	-0.08606	-0.003967	0.020447	0.034332	-0.21637	0.04776	-0.13062	0.003052	-0.002747	-0.028839	0.031281	0.004272	-0.001373	0.07843	0.8992	0.063171	0.00061	-0.001068
51.529	-0.002594	-0.2272	-0.041046	-0.011749	-0.016174	-0.048981	0.089874	-0.006104	-0.002747	-0.003052	-0.025787	0.014191	0.06424	-0.022736	-0.011597	0.005646	0.000153	0.02594	-0.30472	0.030518	0.07843	-0.044708	0.049591	-0.012054	0.045166	0.002747	-0.004883	-0.002899	0.87387	0.10132	-0.002136	-0.006714
51.53	0.014496	-0.23483	-0.017242	-0.00061	-0.058899	-0.017395	0.0737	-0.01358	0.008545	-0.056305	-0.021667	0.021057	-0.029449	0.02594	-0.046082	-0.011292	-0.0177	0.00061	-0.31204	0.073242	0.09201	0.070801	0.10574	-0.043488	0.024414	-0.011597	0.024872	-0.10452	0.34134	0.084229	-0.003815	-0.005035
51.531	0.010834	-0.22476	-0.030518	0.030823	-0.044098	0.14313	0.057373	-0.00473	-0.017395	-0.069885	-0.008087	-0.00061	0.092773	0.029755	0.014648	0.001678	-0.011292	0.012054	-0.27786	-0.018921	0.080872	-0.019684	0.061798	-0.050507	0.022736	-0.012817	0.049744	-0.34241	-0.27115	-0.076752	-0.003052	-0.007477
51.532	-0.007782	-0.22354	-0.080414	0.02243	-0.007019	0.3067	-0.041046	0.002747	-0.020294	-0.043182	-0.009918	-0.022125	0.38147	-0.054932	0.060272	-0.008087	0.000916	0.012054	-0.12726	-0.004883	0.071716	-0.076599	0.087433	-0.02243	0.031433	0.003052	0.020142	0.3035	-0.43762	0.13214	-0.005798	-0.00885
51.533	-0.015106	-0.14374	-0.12207	0.007324	0.009918	0.37582	-0.030212	0.008087	-0.001831	-0.22812	-0.018768	0.002747	0.12405	0.006256	0.11017	-0.001984	0.001068	0.014496	-0.25238	0.030212	0.031433	-0.083618	0.04364	0.002594	0.049744	-0.012054	-0.050354	0.11566	-0.20966	0.16235	-0.001373	-0.010986
51.534	-0.016174	-0.098419	-0.09964	0.010986	0.042267	0.31525	0.035553	0.001678	0.02655	-0.25742	0.018463	0.02655	-0.13351	-0.02655	0.072479	-0.017548	-0.019073	0.050659	-0.14496	0.014954	0.015717	-0.052185	0.039978	0.011749	0.043335	-0.029907	-0.057983	-0.092316	-0.42648	-0.45898	-0.002594	-0.014038
51.535	0.001373	-0.055084	0.023651	0.024109	0.052643	-0.013733	0.014496	-0.00885	0.10437	-0.020752	0.007172	0.022736	-0.1265	-0.12924	0.042267	-0.00885	-0.02182	0.11688	-0.096893	0.013733	0.006866	0.006104	0.10849	0.012207	0.04364	-0.008545	-0.049133	-0.23819	0.074768	-0.38635	-0.003052	-0.022278
